<?xml version="1.0" encoding="UTF-8" standalone="no"?>
<!-- Created with Inkscape (http://www.inkscape.org/) -->

<svg
   width="73.092117mm"
   height="19.108795mm"
   viewBox="0 0 73.092117 19.108795"
   version="1.1"
   id="svg1"
   inkscape:version="1.3 (0e150ed6c4, 2023-07-21)"
   sodipodi:docname="dibujo.svg"
   xmlns:inkscape="http://www.inkscape.org/namespaces/inkscape"
   xmlns:sodipodi="http://sodipodi.sourceforge.net/DTD/sodipodi-0.dtd"
   xmlns="http://www.w3.org/2000/svg"
   xmlns:svg="http://www.w3.org/2000/svg">
  <sodipodi:namedview
     id="namedview1"
     pagecolor="#ffffff"
     bordercolor="#666666"
     borderopacity="1.0"
     inkscape:showpageshadow="2"
     inkscape:pageopacity="0.0"
     inkscape:pagecheckerboard="0"
     inkscape:deskcolor="#d1d1d1"
     inkscape:document-units="mm"
     inkscape:zoom="0.76702441"
     inkscape:cx="165.57491"
     inkscape:cy="300.51195"
     inkscape:window-width="1858"
     inkscape:window-height="1057"
     inkscape:window-x="54"
     inkscape:window-y="-8"
     inkscape:window-maximized="1"
     inkscape:current-layer="layer1" />
  <defs
     id="defs1" />
  <g
     inkscape:label="Capa 1"
     inkscape:groupmode="layer"
     id="layer1"
     transform="translate(-61.11875,-69.05625)">
    <g
       id="g5910"
       transform="matrix(0.26458333,0,0,0.26458333,48.073488,37.703125)">
      <path
         d="M 89.634935,128.37144 C 85.665768,122.19109 78.711824,118.5 71.051824,118.5 c -7.659945,0 -14.614167,3.69169 -18.583056,9.87144 -3.67472,5.70928 -4.17083,12.51206 -1.370738,18.65967 l 6.440849,14.11789 0.02522,8.62744 c 0,0.46217 0.378333,0.84112 0.841111,0.84112 0.462166,0 0.841111,-0.37834 0.841111,-0.84112 L 59.221102,160.77889 52.62903,146.333 c -2.556078,-5.61667 -2.102162,-11.83106 1.252855,-17.044 3.665883,-5.70118 10.082106,-9.10652 17.170105,-9.10652 7.088056,0 13.504556,3.39723 17.170111,9.09841 3.355056,5.22194 3.817834,11.43578 1.252889,17.044 l -6.592055,14.44589 -0.02522,4.75105 c 0,0.46217 0.370111,0.84111 0.841111,0.84111 0.462166,0 0.841055,-0.37011 0.841055,-0.84111 l 0.02522,-4.389 6.440889,-14.11794 c 2.799611,-6.1305 2.303389,-12.93322 -1.370722,-18.64317 z"
         id="path163"
         style="fill:#4d3efc;stroke-width:0.555556" />
      <path
         d="m 83.38699,171.55878 -25.083222,4.16233 c -0.454,0.0756 -0.765444,0.51222 -0.689777,0.96722 0.06744,0.41167 0.420555,0.70611 0.832277,0.70611 0.04222,0 0.09267,0 0.134334,-0.008 l 25.083222,-4.17089 c 0.454,-0.0757 0.765444,-0.51261 0.689777,-0.96716 -0.07567,-0.454 -0.505,-0.76489 -0.967166,-0.68923 z"
         id="path165"
         style="fill:#4d3efc;stroke-width:0.555556" />
      <path
         d="m 83.38699,177.865 -25.083222,4.16222 c -0.454,0.0756 -0.765444,0.51278 -0.689777,0.96722 0.06744,0.41167 0.420555,0.70611 0.832277,0.70611 0.04222,0 0.09267,0 0.134334,-0.008 l 25.083222,-4.17111 c 0.454,-0.0756 0.765444,-0.51278 0.689777,-0.96723 -0.07567,-0.45389 -0.505,-0.765 -0.967166,-0.68889 z"
         id="path167"
         style="fill:#4d3efc;stroke-width:0.555556" />
      <path
         d="m 74.970879,184.17167 c -0.454,0.0839 -0.756666,0.52944 -0.664555,0.98388 0.02522,0.15112 0.04222,0.32778 0.04222,0.52112 0,0.9 -0.353111,1.74111 -0.975444,2.38 -0.639278,0.63 -1.488056,0.98333 -2.387723,0.98333 -1.656333,0 -3.052333,-1.18556 -3.312722,-2.80833 -0.07567,-0.45389 -0.504389,-0.76556 -0.967167,-0.69778 -0.454,0.0755 -0.765444,0.50444 -0.698,0.96722 0.403556,2.44667 2.488667,4.22111 4.977945,4.22111 1.3455,0 2.6065,-0.52167 3.573778,-1.48 0.950222,-0.95833 1.471666,-2.22833 1.471666,-3.565 0,-0.30222 -0.02522,-0.58 -0.07567,-0.84111 -0.0845,-0.44556 -0.522167,-0.74833 -0.984334,-0.66444 z"
         id="path169"
         style="fill:#4d3efc;stroke-width:0.555556" />
      <path
         d="m 66.864046,170.61728 c 0.462167,0 0.841111,-0.37828 0.841111,-0.84111 l -6.11e-4,-16.87578 -6.996278,-6.99628 c 0.176556,-0.37833 0.277445,-0.79067 0.277445,-1.22767 0,-1.623 -1.320278,-2.94333 -2.943334,-2.94333 -1.623,0 -2.943277,1.32033 -2.943277,2.94333 0,1.62306 1.320277,2.94334 2.943277,2.94334 0.571889,0 1.101556,-0.16834 1.547334,-0.454 l 6.432611,6.43261 V 169.776 c 6.11e-4,0.46278 0.378889,0.84111 0.841722,0.84111 z M 56.781935,144.67667 c 0,-0.698 0.563667,-1.26106 1.261056,-1.26106 0.698,0 1.261055,0.56367 1.261055,1.26106 0,0.698 -0.563667,1.26105 -1.261055,1.26105 -0.697945,0 -1.261056,-0.57189 -1.261056,-1.26105 z"
         id="path171"
         style="fill:#4d3efc;stroke-width:0.555556" />
      <path
         d="m 70.21099,146.60167 v 17.20311 c 0,0.46222 0.378278,0.84111 0.841112,0.84111 0.462166,0 0.841111,-0.37828 0.841111,-0.84111 v -16.51395 l 6.432555,-6.43255 v -6.49117 c 1.210667,-0.36133 2.102167,-1.47989 2.102167,-2.80833 0,-1.62306 -1.320278,-2.94334 -2.943334,-2.94334 -1.622999,0 -2.943277,1.32028 -2.943277,2.94334 0,1.3285 0.8915,2.43816 2.102111,2.80833 v 5.79383 z m 6.012612,-15.03495 c 0,-0.698 0.563666,-1.26105 1.261055,-1.26105 0.698,0 1.261056,0.56366 1.261056,1.26105 0,0.69795 -0.563667,1.26106 -1.261056,1.26106 -0.698,0 -1.261055,-0.56311 -1.261055,-1.26106 z"
         id="path173"
         style="fill:#4d3efc;stroke-width:0.555556" />
      <path
         d="m 74.347713,166.53011 c 0,0.46217 0.378333,0.84111 0.841111,0.84111 0.462222,0 0.841111,-0.37833 0.841111,-0.84111 l -6.11e-4,-13.26044 6.491166,-6.49117 c 0.386556,0.19361 0.824111,0.30267 1.278111,0.30267 1.623,0 2.943278,-1.32028 2.943278,-2.94334 0,-1.623 -1.320278,-2.94327 -2.943278,-2.94327 -1.623055,0 -2.943333,1.32027 -2.943333,2.94327 0,0.54667 0.1595,1.05934 0.420556,1.49689 l -6.928889,6.92884 z m 9.450888,-23.64478 c 0.697945,0 1.261056,0.56367 1.261056,1.26106 0,0.69794 -0.563667,1.26105 -1.261056,1.26105 -0.698,0 -1.261055,-0.56366 -1.261055,-1.26105 0,-0.69739 0.571833,-1.26106 1.261055,-1.26106 z"
         id="path175"
         style="fill:#4d3efc;stroke-width:0.555556" />
      <path
         d="m 63.509602,129.27989 c 0,-1.62306 -1.320278,-2.94333 -2.943334,-2.94333 -1.623,0 -2.943333,1.32027 -2.943333,2.94333 0,1.3285 0.891556,2.43817 2.102167,2.80833 v 3.52334 l 6.298222,6.29822 v 6.83605 c 0,0.46223 0.378333,0.84111 0.841111,0.84111 0.462167,0 0.841111,-0.37833 0.841111,-0.84111 v -7.53411 l -6.298222,-6.29822 v -2.82528 c 1.210611,-0.37011 2.102278,-1.47989 2.102278,-2.80833 z m -4.204334,0 c 0,-0.698 0.563667,-1.26106 1.261056,-1.26106 0.698,0 1.261055,0.56367 1.261055,1.26106 0,0.69794 -0.563666,1.26105 -1.261055,1.26105 -0.697945,0 -1.261056,-0.56311 -1.261056,-1.26105 z"
         id="path177"
         style="fill:#4d3efc;stroke-width:0.555556" />
      <text
         fill="#4d3efc"
         font-family="'JetBrains Mono'"
         font-size="32px"
         x="118.03871"
         y="163.61165"
         id="text185"><tspan
           dy="0"
           x="118.03871"
           id="tspan183">DH Technolgy</tspan></text>
    </g>
  </g>
</svg>
