<?xml version="1.0" encoding="UTF-8" standalone="no"?>
<!-- Created with Inkscape (http://www.inkscape.org/) -->

<svg
   width="78.288803mm"
   height="130mm"
   viewBox="0 0 78.288803 130"
   version="1.1"
   id="svg1"
   inkscape:version="1.3 (0e150ed6c4, 2023-07-21)"
   sodipodi:docname="logo-favicon.svg"
   xmlns:inkscape="http://www.inkscape.org/namespaces/inkscape"
   xmlns:sodipodi="http://sodipodi.sourceforge.net/DTD/sodipodi-0.dtd"
   xmlns="http://www.w3.org/2000/svg"
   xmlns:svg="http://www.w3.org/2000/svg">
  <sodipodi:namedview
     id="namedview1"
     pagecolor="#ffffff"
     bordercolor="#666666"
     borderopacity="1.0"
     inkscape:showpageshadow="2"
     inkscape:pageopacity="0.0"
     inkscape:pagecheckerboard="0"
     inkscape:deskcolor="#d1d1d1"
     inkscape:document-units="mm"
     inkscape:zoom="0.54236816"
     inkscape:cx="-22.125193"
     inkscape:cy="426.83184"
     inkscape:window-width="1858"
     inkscape:window-height="1057"
     inkscape:window-x="54"
     inkscape:window-y="-8"
     inkscape:window-maximized="1"
     inkscape:current-layer="layer1" />
  <defs
     id="defs1" />
  <g
     inkscape:label="Capa 1"
     inkscape:groupmode="layer"
     id="layer1"
     transform="translate(-0.92358476)">
    <g
       id="g1">
      <svg
         width="80"
         height="130"
         viewBox="0 0 80 130"
         version="1.1"
         id="svg8"
         style="fill:#eb3f57">
        <path
           d="M 73.5176,17.7686 C 66.3731,6.64396 53.856,0 40.068,0 26.2801,0 13.7625,6.64504 6.6185,17.7686 0.00400323,28.0453 -0.888995,40.2903 4.15117,51.356 l 11.59353,25.4122 0.0454,15.5294 c 0,0.8319 0.681,1.514 1.514,1.514 0.8319,0 1.514,-0.681 1.514,-1.514 L 18.7727,76.102 6.90697,50.0994 C 2.30603,39.9894 3.12308,28.8035 9.16211,19.4202 15.7607,9.15808 27.3099,3.02846 40.0683,3.02846 c 12.7585,0 24.3082,6.11502 30.9062,16.37714 6.0391,9.3995 6.8721,20.5844 2.2552,30.6792 L 61.364,76.0874 61.3186,84.6393 c 0,0.8319 0.6662,1.514 1.514,1.514 0.8319,0 1.5139,-0.6662 1.5139,-1.514 L 64.3919,76.7391 75.9855,51.3268 C 81.0248,40.2919 80.1316,28.047 73.5182,17.7691 Z"
           id="path1" />
        <path
           d="m 62.2713,95.5058 -45.1498,7.4922 c -0.8172,0.136 -1.3778,0.922 -1.2416,1.741 0.1214,0.741 0.757,1.271 1.4981,1.271 0.076,0 0.1668,0 0.2418,-0.015 l 45.1498,-7.5076 c 0.8172,-0.1362 1.3778,-0.9227 1.2416,-1.7409 -0.1362,-0.8172 -0.909,-1.3768 -1.7409,-1.2406 z"
           id="path2" />
        <path
           d="m 62.2713,106.857 -45.1498,7.492 c -0.8172,0.136 -1.3778,0.923 -1.2416,1.741 0.1214,0.741 0.757,1.271 1.4981,1.271 0.076,0 0.1668,0 0.2418,-0.014 l 45.1498,-7.508 c 0.8172,-0.136 1.3778,-0.923 1.2416,-1.741 -0.1362,-0.817 -0.909,-1.377 -1.7409,-1.24 z"
           id="path3" />
        <path
           d="m 47.1223,118.209 c -0.8172,0.151 -1.362,0.953 -1.1962,1.771 0.0454,0.272 0.076,0.59 0.076,0.938 0,1.62 -0.6356,3.134 -1.7558,4.284 -1.1507,1.134 -2.6785,1.77 -4.2979,1.77 -2.9814,0 -5.4942,-2.134 -5.9629,-5.055 -0.1362,-0.817 -0.9079,-1.378 -1.7409,-1.256 -0.8172,0.136 -1.3778,0.908 -1.2564,1.741 0.7264,4.404 4.4796,7.598 8.9603,7.598 2.4219,0 4.6917,-0.939 6.4328,-2.664 1.7104,-1.725 2.649,-4.011 2.649,-6.417 0,-0.544 -0.0454,-1.044 -0.1362,-1.514 -0.1521,-0.802 -0.9399,-1.347 -1.7718,-1.196 z"
           id="path4" />
        <path
           d="m 32.53,93.8111 c 0.8319,0 1.514,-0.6809 1.514,-1.514 L 34.0429,61.9207 21.4496,49.3274 c 0.3178,-0.681 0.4994,-1.4232 0.4994,-2.2098 0,-2.9214 -2.3765,-5.298 -5.298,-5.298 -2.9214,0 -5.2979,2.3766 -5.2979,5.298 0,2.9215 2.3765,5.298 5.2979,5.298 1.0294,0 1.9828,-0.303 2.7852,-0.8172 l 11.5787,11.5787 v 29.1197 c 0.0011,0.833 0.682,1.514 1.5151,1.514 z M 14.3822,47.118 c 0,-1.2564 1.0146,-2.2699 2.2699,-2.2699 1.2564,0 2.2699,1.0146 2.2699,2.2699 0,1.2564 -1.0146,2.2699 -2.2699,2.2699 -1.2563,0 -2.2699,-1.0294 -2.2699,-2.2699 z"
           id="path5" />
        <path
           d="m 38.5545,50.583 v 30.9656 c 0,0.832 0.6809,1.514 1.514,1.514 0.8319,0 1.514,-0.6809 1.514,-1.514 V 51.8235 L 53.1611,40.2449 V 28.5608 c 2.1792,-0.6504 3.7839,-2.6638 3.7839,-5.055 0,-2.9215 -2.3765,-5.298 -5.298,-5.298 -2.9214,0 -5.2979,2.3765 -5.2979,5.298 0,2.3913 1.6047,4.3887 3.7838,5.055 V 38.9897 Z M 49.3772,23.5201 c 0,-1.2564 1.0146,-2.2699 2.2699,-2.2699 1.2564,0 2.2699,1.0146 2.2699,2.2699 0,1.2563 -1.0146,2.2699 -2.2699,2.2699 -1.2564,0 -2.2699,-1.0136 -2.2699,-2.2699 z"
           id="path6" />
        <path
           d="m 46.0006,86.4542 c 0,0.8319 0.681,1.514 1.514,1.514 0.832,0 1.514,-0.681 1.514,-1.514 L 49.0275,62.5854 60.7116,50.9013 c 0.6958,0.3485 1.4834,0.5448 2.3006,0.5448 2.9214,0 5.2979,-2.3765 5.2979,-5.298 0,-2.9214 -2.3765,-5.2979 -5.2979,-5.2979 -2.9215,0 -5.298,2.3765 -5.298,5.2979 0,0.984 0.2871,1.9068 0.757,2.6944 L 45.9992,61.3144 Z M 63.0122,43.8936 c 1.2563,0 2.2699,1.0146 2.2699,2.2699 0,1.2563 -1.0146,2.2699 -2.2699,2.2699 -1.2564,0 -2.2699,-1.0146 -2.2699,-2.2699 0,-1.2553 1.0293,-2.2699 2.2699,-2.2699 z"
           id="path7" />
        <path
           d="m 26.492,19.4038 c 0,-2.9215 -2.3765,-5.298 -5.298,-5.298 -2.9214,0 -5.298,2.3765 -5.298,5.298 0,2.3913 1.6048,4.3887 3.7839,5.055 v 6.342 l 11.3368,11.3368 v 12.3049 c 0,0.832 0.681,1.514 1.514,1.514 0.8319,0 1.514,-0.681 1.514,-1.514 V 40.8811 L 22.7079,29.5443 v -5.0855 c 2.1791,-0.6662 3.7841,-2.6638 3.7841,-5.055 z m -7.5678,0 c 0,-1.2564 1.0146,-2.2699 2.2699,-2.2699 1.2564,0 2.2699,1.0146 2.2699,2.2699 0,1.2563 -1.0146,2.2699 -2.2699,2.2699 -1.2563,0 -2.2699,-1.0136 -2.2699,-2.2699 z"
           id="path8" />
      </svg>
    </g>
  </g>
</svg>
